HIERARCHY
ROOT hip
{
	OFFSET 0.000000 0.000000 0.000000 
	CHANNELS 6 Xposition Yposition Zposition Xrotation Zrotation Yrotation
	JOINT abdomen
	{
		OFFSET 0.000000 3.402643 0.000000 
		CHANNELS 3 Xrotation Zrotation Yrotation
		JOINT chest
		{
			OFFSET 0.000000 8.438565 -0.680529 
			CHANNELS 3 Xrotation Zrotation Yrotation
			JOINT neck
			{
				OFFSET 0.000000 10.207942 -0.272212 
				CHANNELS 3 Xrotation Zrotation Yrotation
				JOINT head
				{
					OFFSET 0.000000 3.130431 0.000000 
					CHANNELS 3 Xrotation Zrotation Yrotation
					End Site
					{
						OFFSET 0.000000 3.130435 0.000000 
					}
				}
			}
			JOINT lCollar
			{
				OFFSET 3.470700 6.669187 -0.816635 
				CHANNELS 3 Yrotation Zrotation Xrotation
				JOINT lShldr
				{
					OFFSET 3.198488 0.000000 0.000000 
					CHANNELS 3 Zrotation Yrotation Xrotation
					JOINT lForeArm
					{
						OFFSET 10.139888 0.000000 0.000000 
						CHANNELS 3 Yrotation Zrotation Xrotation
						JOINT lHand
						{
							OFFSET 8.370511 0.000000 0.000000 
							CHANNELS 3 Zrotation Yrotation Xrotation
							End Site
							{
								OFFSET 4.083176 0.000000 0.000000 
							}
						}
					}
				}
			}
			JOINT rCollar
			{
				OFFSET -3.470700 6.669187 -0.816635 
				CHANNELS 3 Yrotation Zrotation Xrotation
				JOINT rShldr
				{
					OFFSET -3.198488 0.000000 0.000000 
					CHANNELS 3 Zrotation Yrotation Xrotation
					JOINT rForeArm
					{
						OFFSET -10.139888 0.000000 0.000000 
						CHANNELS 3 Yrotation Zrotation Xrotation
						JOINT rHand
						{
							OFFSET -8.370511 0.000000 0.000000 
							CHANNELS 3 Zrotation Yrotation Xrotation
							End Site
							{
								OFFSET -4.083176 0.000000 0.000000 
							}
						}
					}
				}
			}
		}
	}
	JOINT lThigh
	{
		OFFSET 5.308129 -1.633274 1.361059 
		CHANNELS 3 Xrotation Zrotation Yrotation
		JOINT lShin
		{
			OFFSET -2.041588 -20.007561 0.000000 
			CHANNELS 3 Xrotation Zrotation Yrotation
			JOINT lFoot
			{
				OFFSET 0.000000 -19.190928 -1.224953 
				CHANNELS 3 Xrotation Yrotation Zrotation
				End Site
				{
					OFFSET 0.000000 -2.449906 4.627600 
				}
			}
		}
	}
	JOINT rThigh
	{
		OFFSET -5.308129 -1.633274 1.361059 
		CHANNELS 3 Xrotation Zrotation Yrotation
		JOINT rShin
		{
			OFFSET 2.041588 -20.007561 0.000000 
			CHANNELS 3 Xrotation Zrotation Yrotation
			JOINT rFoot
			{
				OFFSET 0.000000 -19.190928 -1.224953 
				CHANNELS 3 Xrotation Yrotation Zrotation
				End Site
				{
					OFFSET 0.000000 -2.449906 4.627600 
				}
			}
		}
	}
}
MOTION
Frames: 18
Frame Time: 0.050000
5.082419 51.840919 2.710936 4.695922 0.884854 -12.329884 4.304927 -1.309271 2.447439 -3.357268 -3.728542 -3.506687 2.252588 0.569412 0.373163 -4.313099 2.263445 11.976616 2.355362 -11.938561 0.825617 -47.979828 6.226952 -27.643650 -38.220821 -20.621813 -6.072867 8.620841 -6.720159 -13.824437 -2.470096 5.192365 10.154353 75.473557 17.200649 -4.035641 56.332943 15.158884 4.773250 -7.126021 0.717151 -2.528349 -25.292000 2.014365 -13.611490 35.394455 -5.339088 -4.037755 -15.873971 32.054604 -0.708363 -22.555450 -2.216508 11.046465 35.818161 0.151115 1.314567 -14.641166 -12.996461 5.335442 
6.342214 48.884872 8.243701 8.324639 -0.017059 -24.722479 6.281571 -1.156822 6.812588 -3.361876 -4.609846 -4.495838 4.939199 0.283853 0.857881 -5.906284 3.833679 26.833021 9.749598 -17.706797 3.014432 -22.143492 -0.302141 -78.018570 -75.456078 -34.452259 -15.598155 6.092582 -8.365738 -12.592474 -4.287768 5.003191 10.250525 80.692917 22.972698 -7.316103 100.019066 19.795258 -12.704865 -12.422483 0.159897 -5.839699 -43.121628 12.958229 -16.093407 47.459068 -5.975976 -5.776658 -7.512749 39.205635 -12.273976 -28.019880 -3.727454 12.400514 50.475376 2.624940 2.557456 -26.700356 -11.293807 7.301763 
7.748241 46.467606 13.263696 11.256000 -0.754729 -32.656601 7.886330 -1.689660 1.893530 -3.202740 -3.918820 -3.789450 7.114000 0.052653 -0.137677 -7.175090 4.789650 43.417801 13.145100 -19.508301 2.960740 -9.739790 -6.487453 -95.186073 -107.768799 -35.717236 -19.660767 3.564323 -10.011316 -11.360512 -5.994600 4.261930 10.265700 78.796799 29.201000 -12.198100 130.358002 22.538000 -24.790100 -13.541800 2.624610 -10.604300 -53.281612 22.100174 -17.013186 57.113930 -6.786886 -7.049018 -6.552360 38.576290 -16.733671 -29.088573 -7.434773 14.140801 56.574291 4.368865 2.798834 -32.646996 -12.884249 12.257075 
9.244439 45.277187 16.817266 12.623359 -1.117637 -31.418068 8.677859 -3.345751 -18.234396 -2.844194 -0.597003 0.403453 8.138114 -0.056340 -3.622808 -7.750083 4.515426 59.481457 9.065512 -14.087615 -1.045493 -22.439646 -11.464526 -51.837185 -127.786316 -14.675089 -13.637974 2.051546 -11.635843 -6.052166 -7.276505 2.506544 10.142009 64.063858 35.499001 -19.893642 133.098267 21.767550 -25.591581 -7.322418 10.118077 -17.050766 -56.293568 19.993530 -14.619067 66.884911 -7.187043 -8.423887 -18.094944 36.637085 -9.438110 -26.710358 -11.633283 15.031141 57.235714 5.136428 2.537112 -32.146374 -17.782946 15.112908 
10.436768 45.059959 18.824041 12.789722 -1.179618 -22.802256 8.971737 -5.171377 -39.614483 -2.845331 3.206185 8.996147 8.273925 -0.071118 -7.786649 -7.927750 3.367060 62.417648 1.275955 -5.469722 -6.539118 -47.130585 -15.269460 17.713516 -136.804413 14.985213 -3.056686 1.201626 -13.438620 3.319090 -7.844379 -0.175081 9.995332 42.095142 40.372715 -30.683800 115.759850 19.889471 -17.410048 0.999450 18.861383 -21.222500 -57.388184 14.199974 -12.927914 68.370468 -7.249041 -8.625588 -21.923840 31.156403 -4.276631 -21.420982 -13.970904 14.695686 55.724228 5.206335 2.298786 -29.350672 -26.667253 15.124480 
10.846695 45.326809 19.421972 12.425500 -1.085600 -10.231900 9.272770 -5.864900 -43.319698 -3.913930 4.539360 22.682501 8.009130 -0.043636 -10.113300 -8.171050 1.943600 37.030800 -4.648100 0.500300 -10.011200 -64.504303 -18.163500 63.745701 -138.285904 33.717098 4.018800 0.858600 -14.516000 9.694500 -7.415360 -3.557580 9.984980 21.322201 42.051300 -44.616901 91.305603 20.315599 -4.594110 4.088170 23.629200 -18.116600 -57.476936 8.353215 -10.861906 65.330963 -7.141245 -8.188590 -20.175388 21.841835 -1.549806 -15.271196 -12.839229 13.447207 54.406567 4.958203 2.262034 -26.911783 -39.413647 14.220445 
10.391893 45.665157 19.241571 12.094214 -0.948309 4.140296 9.969427 -4.745687 -20.989340 -5.887987 2.161637 37.460587 7.720321 -0.013766 -7.872441 -8.762387 0.572249 -18.736767 -4.648120 0.500335 -10.011194 -64.504326 -18.163481 63.745747 -138.285950 33.717060 4.018823 0.858643 -14.515997 9.694537 -5.954084 -7.650239 10.222358 10.176394 36.906986 -60.332981 68.252953 23.777739 8.735512 -1.005792 20.683361 -3.845218 -57.102848 3.215320 -8.777207 60.549374 -7.037886 -7.491776 -15.792885 10.164621 -0.237238 -10.364982 -8.532265 11.816248 53.807205 4.691874 2.275374 -25.288748 -51.700741 12.841021 
10.215382 45.944950 20.399544 11.985600 -0.765356 21.755301 11.037200 -3.050070 2.816840 -5.735210 0.174966 33.335999 7.397420 0.020568 -1.708470 -9.371130 -1.234770 -58.732101 -1.396640 -0.606014 -10.988200 -64.553299 -11.375900 74.275902 -144.496994 40.210201 3.806910 0.977300 -14.683200 10.807200 -4.178100 -13.061800 10.674500 9.945220 17.459600 -77.750504 39.157398 23.813499 19.350000 -0.135139 15.783500 23.349899 -54.859776 -3.374959 -6.281048 57.157936 -6.899922 -7.016070 -13.291926 -4.224412 2.212702 -2.941565 -2.281281 9.603512 48.543522 4.421340 1.763195 -21.423302 -66.842934 13.508904 
10.443564 46.086018 23.200413 12.279300 -0.578800 39.477001 12.372800 -0.841300 26.438101 -3.224880 -1.706680 16.337400 7.125390 0.050435 -2.517860 -10.028900 -3.186670 -69.145302 0.074460 -2.446090 -11.307300 -59.451099 -13.239800 75.501297 -142.417007 41.190399 -5.583200 0.977300 -14.683200 10.807200 -2.287880 -19.186399 11.352500 0.438039 1.904510 -111.250000 8.220910 30.784901 22.285101 10.382000 19.493099 58.305901 -50.947697 -8.800600 -4.849628 56.905514 -6.810419 -7.026392 -13.984272 -19.343348 4.424754 5.849227 5.232521 6.426963 37.936012 4.142254 0.686111 -9.973341 -78.039864 19.499632 
10.883740 46.240517 25.948683 12.753900 -0.534646 52.541000 13.307800 0.671317 43.088001 -2.152370 -4.612880 36.023201 6.961490 0.068878 -3.138110 -10.554100 -4.623250 -103.213997 0.683973 -4.253280 -11.371600 -55.815899 -19.807699 73.709297 -140.069000 38.194801 -14.152600 0.977300 -14.683200 10.807200 -0.943824 -24.532600 11.951600 -14.513900 31.683800 -139.209000 -6.889340 59.608898 22.095200 2.297600 14.743500 55.948002 -46.675980 -11.139503 -4.563932 56.235550 -6.798240 -6.957132 -14.803291 -31.603090 5.256072 15.308477 11.775520 6.132570 19.917946 3.485264 -1.117396 25.683638 -83.452385 45.432980 
11.208561 46.515160 26.936401 13.219600 -0.727236 56.039902 13.397500 0.729990 48.375401 -1.900070 -6.342170 40.215199 6.967780 0.068743 -3.328170 -9.500000 -4.576160 -93.017899 0.765247 -5.397460 -11.254800 -53.046398 -23.479099 68.943497 -129.274994 36.249001 -34.380798 0.977300 -14.683200 10.807200 -0.678351 -27.368200 12.234800 -17.847601 49.488098 -147.813995 -32.141602 68.371902 47.282001 2.297600 14.743500 32.948002 -45.025196 -11.637534 -4.847871 55.308903 -6.814299 -6.813898 -15.212904 -34.946892 5.209212 23.980698 12.912710 8.288639 0.992465 2.310829 -2.806289 65.571686 -86.243584 77.776474 
11.352896 46.777752 26.503527 13.812105 -0.919327 52.133663 12.735743 -0.460969 45.445713 -2.136100 -6.905771 43.306858 7.119059 0.052765 -3.170534 -9.784353 -4.069059 -92.315025 0.465768 -6.103466 -10.936204 -50.609730 -24.100863 60.297932 -127.593330 26.730690 -31.277571 0.980112 -14.679035 10.792002 -1.343834 -27.998419 12.245688 -9.325658 48.883610 -138.875397 9.116718 68.798698 15.844225 2.848163 15.120133 27.379206 -45.921532 -11.424838 -4.676798 54.824776 -6.849917 -6.715791 -15.303322 -31.361547 5.191908 22.271345 10.285668 8.268438 3.542386 2.519195 -2.703268 33.459518 -86.019569 47.913151 
11.319250 46.836880 25.503731 14.748000 -0.790692 44.767502 11.549000 -2.463070 39.287399 -2.909940 -7.140110 46.143902 7.367870 0.026196 -2.705610 -10.539700 -3.087440 -93.886703 -0.091729 -6.804960 -10.385200 -48.114799 -23.370899 46.826801 -129.328003 12.027100 -18.353701 0.977300 -14.683200 10.807200 -2.623950 -27.243700 12.097200 8.071660 44.543301 -117.500000 68.913200 68.507599 -27.490101 2.297600 14.743500 32.948002 -47.800690 -10.728418 -4.257981 53.638428 -6.930114 -6.485506 -14.682931 -24.687017 4.916749 14.752087 5.902436 7.741090 17.496929 3.523448 -1.613040 -3.598810 -82.387268 18.593096 
11.115246 46.569832 24.603947 15.985900 -0.325584 36.704700 10.083100 -4.788900 33.490799 -4.120290 -7.628750 42.216599 7.662460 -0.005282 -2.139810 -10.232900 -1.403240 -74.142998 -0.833506 -7.852140 -9.560630 -45.059601 -22.635799 27.695400 -124.699997 -3.080620 -17.203100 0.977300 -14.683200 10.807200 -4.198060 -25.688101 11.884500 31.036600 46.432701 -89.019798 86.995796 66.810699 -25.326599 2.297600 14.743500 32.948002 -50.748436 -9.403381 -3.758626 53.997440 -7.037509 -6.484672 -14.868147 -17.540462 4.306217 8.231080 1.368530 8.681103 28.027575 4.166903 -0.693367 -17.576769 -78.192009 11.476563 
10.782670 46.131950 23.733322 16.661421 -0.395106 26.571827 8.645065 -6.796910 26.367107 -5.214289 -8.006841 36.066097 7.930729 -0.033953 -1.537057 -9.735161 0.464717 -49.196926 -1.739305 -9.229041 -8.470221 -41.389210 -21.842142 3.839217 -119.777542 -18.640127 -18.005898 1.042163 -14.621743 10.641290 -5.736866 -23.010252 11.625854 53.577309 47.984066 -58.978146 104.171379 57.091427 -22.313587 -1.289474 14.196145 20.216997 -54.472382 -5.784964 -4.085407 56.425545 -7.161230 -6.817777 -16.325275 -9.269712 3.238859 2.028164 -2.549209 9.865808 36.176525 4.640615 0.054869 -24.809132 -70.926399 9.819638 
10.371066 45.747898 22.636030 16.504070 -0.852669 13.714086 7.558155 -7.804688 17.103310 -5.807487 -7.934026 28.519575 8.095675 -0.051612 -0.970755 -9.268315 2.205223 -24.192699 -2.809968 -10.830036 -7.128792 -37.392403 -20.878170 -23.330935 -117.199799 -31.951677 -18.432392 1.085392 -14.580973 10.531718 -6.908412 -18.660225 11.320681 70.619827 47.406998 -32.138687 124.949219 42.974285 -26.769016 -6.798549 12.956968 1.362854 -57.637077 0.034311 -5.941525 59.890923 -7.248202 -7.319204 -18.350723 0.836887 1.580455 -4.313905 -6.017831 10.990421 42.790119 4.951970 0.731044 -27.916876 -60.102352 11.324029 
9.929770 45.642296 21.056089 15.456600 -1.221170 -2.055900 7.145870 -7.129210 5.471880 -5.590450 -7.139710 18.677099 8.080340 -0.050059 -0.526330 -8.720740 3.612230 1.297370 -4.048400 -12.550000 -5.549800 -33.419800 -19.709900 -52.395500 -117.635002 -39.261002 -20.244499 0.977300 -14.683200 10.807200 -7.380610 -12.087500 10.968500 77.514000 45.287300 -13.043000 137.421997 31.209999 -30.519899 -10.631200 11.226300 -13.970800 -58.636238 7.055056 -9.473969 62.798035 -7.206714 -7.797652 -19.837234 13.797440 -1.121589 -11.261881 -9.244553 12.258523 48.135292 5.062355 1.388989 -28.823559 -45.911545 13.848780 
9.473536 46.000237 18.791403 13.560966 -1.145028 -19.622360 7.512607 -4.549109 -7.792554 -4.468095 -5.555123 6.601958 7.796893 -0.019947 -0.263316 -8.010584 4.503204 26.197536 -5.369205 -14.166794 -3.824413 -30.199688 -18.158804 -80.080315 -120.192108 -38.295189 -24.174129 0.736813 -14.910399 11.418831 -6.958374 -3.449813 10.586893 72.217697 42.115086 -4.496944 133.118073 26.517517 -27.468960 -10.311447 9.228148 -18.807365 -56.143562 13.668895 -13.976037 63.188000 -7.034550 -7.893631 -18.636358 29.717003 -5.895309 -19.008827 -11.574405 13.560792 51.434746 4.930476 1.942753 -31.444941 -22.968527 14.472087 
